<svg width="122" height="66" viewBox="0 0 122 66" fill="none" xmlns="http://www.w3.org/2000/svg">
<path d="M2 53.284L8.8961 64H21.9221L18.0909 51.7531L21.1558 48.6914L24.987 64H39.5455L34.9481 54.8148L38.013 47.9259L61.7662 46.3951L61 50.2222L65.5974 64H80.9221L76.3247 59.4074L77.0909 55.5802L85.5195 57.8765V60.9383L95.4805 60.1728L91.6493 47.1605L83.2208 43.3333L85.5195 35.679L98.5454 33.3827L116.169 36.4444L120 28.7901L114.636 23.4321L113.87 18.0741L104.675 10.4198L103.143 6.59259L98.5454 3.53086L97.013 8.12346L67.1299 2L63.2987 5.06173H31.1169L15.7922 11.9506L7.36364 29.5556L8.8961 32.6173L2 53.284Z" fill="url(#paint0_linear_296_46)" stroke="#836656" stroke-width="3"/>
<defs>
<linearGradient id="paint0_linear_296_46" x1="61" y1="2" x2="61" y2="64" gradientUnits="userSpaceOnUse">
<stop stop-color="#FFD257"/>
<stop offset="0.9999" stop-color="#8CCB8C"/>
</linearGradient>
</defs>
</svg>
